<!-- Created with Inkscape (http://www.inkscape.org/) -->
<svg xmlns:rdf="http://www.w3.org/1999/02/22-rdf-syntax-ns#" xmlns="http://www.w3.org/2000/svg" height="64px" width="64px" version="1.1" xmlns:cc="http://creativecommons.org/ns#" xmlns:xlink="http://www.w3.org/1999/xlink" xmlns:dc="http://purl.org/dc/elements/1.1/">
 <defs>
  <linearGradient id="linearGradient3829" y2="4.091" gradientUnits="userSpaceOnUse" x2="18.36" y1="27.36" x1="22.36">
   <stop stop-color="#fff9f9" stop-opacity="0.50196081" offset="0"/>
   <stop stop-color="#FFF" stop-opacity="0" offset="1"/>
  </linearGradient>
  <clipPath id="clipPath4394" clipPathUnits="userSpaceOnUse">
   <path stroke-linejoin="miter" style="enable-background:accumulate;color:#000000;" d="m19.15,61.22c-5.083-0.9623-7.114-2.865-7.114-6.665,0-1.518,0.3984-2.394,1.561-3.434,1.28-1.145,1.467-1.621,1.036-2.646-0.519-1.236-0.5374-1.238-1.665-0.1209-2.238,2.216-4.33,1.025-5.364-3.053-0.9874-3.898,0.8253-10.43,3.832-13.81,0.6329-0.7117,1.151-2.04,1.151-2.953,0-0.9123,0.4802-2.66,1.067-3.883s1.329-3.524,1.65-5.113c0.8907-4.414,1.941-6.65,4.524-9.629,3.391-3.91,6.964-5.681,12.13-6.01,4.991-0.3183,8.323,0.6814,12.1,3.631,2.929,2.285,5.787,6.588,6.634,9.986,0.325,1.305,1.215,4.118,1.978,6.253,0.8804,2.464,1.246,4.352,1.002,5.17-0.246,0.824-0.0823,1.644,0.4543,2.274,0.4615,0.542,1.474,2.435,2.25,4.207,2.265,5.172,1.824,11.89-0.899,13.69-0.7278,0.483-1.307,0.3386-2.546-0.6351l-1.604-1.26-0.6703,1.331c-0.5936,1.179-0.4758,1.538,1.03,3.138,1.789,1.902,2.165,3.98,1.101,6.093-1.774,3.524-11.91,4.893-17.3,2.336l-2.732-1.298-2.506,1.138c-3.043,1.382-7.685,1.91-11.11,1.263z" fill-rule="nonzero" stroke-dashoffset="0" filter="url(#filter5703)" stroke="#FFF" stroke-linecap="butt" stroke-miterlimit="4" stroke-dasharray="none" stroke-width="1" fill="url(#linearGradient4398)"/>
  </clipPath>
  <linearGradient id="linearGradient4398" y2="61.4" gradientUnits="userSpaceOnUse" x2="31.24" gradientTransform="translate(1.3621143e-4,2.1690247e-4)" y1="4.489" x1="30.65">
   <stop stop-color="#000" offset="0"/>
   <stop stop-color="#292929" offset="1"/>
  </linearGradient>
 </defs>
 <metadata>
  <rdf:RDF>
   <cc:Work rdf:about="">
    <dc:format>image/svg+xml</dc:format>
    <dc:type rdf:resource="http://purl.org/dc/dcmitype/StillImage"/>
    <dc:title/>
   </cc:Work>
  </rdf:RDF>
 </metadata>
 <path clip-path="url(#clipPath4394)" fill="url(#linearGradient3829)" d="m-4.545,42.36s27.64-24.18,69.09-23.09c41.46,1.09-18.9-25.45-18.9-25.45s-55.09,6.909-55.09,7.636c0,0.7273,4.909,40.91,4.909,40.91z"/>
 <path stroke-linejoin="miter" style="enable-background:accumulate;color:#000000;" d="m19.11,61.28c-5.083-0.9623-7.114-2.865-7.114-6.665,0-1.518,0.3984-2.394,1.561-3.434,1.28-1.145,1.467-1.621,1.036-2.646-0.519-1.236-0.5374-1.238-1.665-0.1209-2.238,2.216-4.33,1.025-5.364-3.053-0.9874-3.898,0.8253-10.43,3.832-13.81,0.6329-0.7117,1.151-2.04,1.151-2.953,0-0.9123,0.4801-2.66,1.067-3.883,0.5868-1.223,1.329-3.524,1.65-5.113,0.8907-4.414,1.941-6.65,4.524-9.629,3.391-3.91,6.964-5.681,12.13-6.01,4.991-0.3183,8.323,0.6814,12.1,3.631,2.929,2.285,5.787,6.588,6.634,9.986,0.325,1.305,1.215,4.118,1.978,6.253,0.8804,2.464,1.246,4.352,1.002,5.17-0.2461,0.824-0.08227,1.644,0.4543,2.274,0.4615,0.542,1.474,2.435,2.25,4.207,2.265,5.172,1.824,11.89-0.8989,13.69-0.7278,0.483-1.307,0.3386-2.546-0.6351l-1.604-1.26-0.6703,1.331c-0.5936,1.179-0.4758,1.538,1.03,3.138,1.789,1.902,2.165,3.98,1.101,6.093-1.774,3.524-11.91,4.893-17.3,2.336l-2.732-1.298-2.506,1.138c-3.043,1.382-7.685,1.91-11.11,1.263z" stroke-dashoffset="0" stroke="#e2e2e2" stroke-linecap="butt" stroke-miterlimit="4" stroke-dasharray="none" stroke-width="1" fill="#007aff"/>
 <path d="m32.05,20.73c1.514-0.8659,2.922-1.885,4.113-3.47,2.236,3.908,5.759,2.029,10.8-2.056-0.01791,2.164-1.195,5.356-3.085,7.112-0.7358-2.328-3.689-1.941-5.398-0.5141-1.335-1.831-2.513-1.995-6.426-1.071z" fill-opacity="0.10055865" fill="#14daf1"/>
 <g transform="matrix(1.1127032,0,0,1.1311454,77.358645,-29.191063)" stroke="#007aff" stroke-dasharray="none" stroke-miterlimit="4" fill="none">
  <path style="enable-background:accumulate;color:#000000;" d="m-49.09,40.18a6.727,6.727,0,1,1,-13.45,0,6.727,6.727,0,1,1,13.45,0z" transform="matrix(0.58162593,0,0,0.58162593,-2.2301523,20.415577)" stroke-width="0.30650485"/>
  <path style="enable-background:accumulate;color:#000000;" d="m-49.09,40.18a6.727,6.727,0,1,1,-13.45,0,6.727,6.727,0,1,1,13.45,0z" transform="matrix(0.46530074,0,0,0.46530074,-8.7688849,25.147296)" stroke-width="0.38313106"/>
  <path style="enable-background:accumulate;color:#000000;" d="m-49.09,40.18a6.727,6.727,0,1,1,-13.45,0,6.727,6.727,0,1,1,13.45,0z" transform="matrix(0.32571052,0,0,0.32571052,-16.52771,30.852003)" stroke-width="0.54733008"/>
  <path style="enable-background:accumulate;color:#000000;" d="m-49.09,40.18a6.727,6.727,0,1,1,-13.45,0,6.727,6.727,0,1,1,13.45,0z" transform="matrix(0.19542631,0,0,0.19542631,-23.805677,36.092799)" stroke-width="0.91221684"/>
  <path style="enable-background:accumulate;color:#000000;" d="m-49.09,40.18a6.727,6.727,0,1,1,-13.45,0,6.727,6.727,0,1,1,13.45,0z" transform="matrix(0.08794184,0,0,0.08794184,-29.829175,40.407765)" stroke-width="2.02714849"/>
  <path style="enable-background:accumulate;color:#000000;" d="m-49.09,40.18a6.727,6.727,0,1,1,-13.45,0,6.727,6.727,0,1,1,13.45,0z" transform="matrix(0.69795112,0,0,0.69795112,4.331636,15.742452)" stroke-width="0.25542071"/>
  <path style="enable-background:accumulate;color:#000000;" d="m-49.09,40.18a6.727,6.727,0,1,1,-13.45,0,6.727,6.727,0,1,1,13.45,0z" transform="matrix(0.81660281,0,0,0.81660281,10.961155,10.985792)" stroke-width="0.2183083"/>
 </g>
</svg>
