<?xml version="1.0" encoding="UTF-8" standalone="no"?>
<!-- Created with Inkscape (http://www.inkscape.org/) -->

<svg
   xmlns:dc="http://purl.org/dc/elements/1.1/"
   xmlns:cc="http://creativecommons.org/ns#"
   xmlns:rdf="http://www.w3.org/1999/02/22-rdf-syntax-ns#"
   xmlns:svg="http://www.w3.org/2000/svg"
   xmlns="http://www.w3.org/2000/svg"
   xmlns:xlink="http://www.w3.org/1999/xlink"
   xmlns:sodipodi="http://sodipodi.sourceforge.net/DTD/sodipodi-0.dtd"
   xmlns:inkscape="http://www.inkscape.org/namespaces/inkscape"
   width="64px"
   height="64px"
   id="svg2985"
   version="1.1"
   inkscape:version="0.48.4 r9939"
   sodipodi:docname="scalable.svg"
   inkscape:export-filename="/home/xiehuc/PROJECT/pidgin-lwqq/res/pidgin/scalable/webqq.png"
   inkscape:export-xdpi="22.5"
   inkscape:export-ydpi="22.5">
  <defs
     id="defs2987">
    <linearGradient
       id="linearGradient3823">
      <stop
         style="stop-color:#fff9f9;stop-opacity:0.50196081;"
         offset="0"
         id="stop3825" />
      <stop
         style="stop-color:#ffffff;stop-opacity:0;"
         offset="1"
         id="stop3827" />
    </linearGradient>
    <linearGradient
       inkscape:collect="always"
       xlink:href="#linearGradient3823"
       id="linearGradient3829"
       x1="22.363636"
       y1="27.363636"
       x2="18.357994"
       y2="4.0909081"
       gradientUnits="userSpaceOnUse" />
    <linearGradient
       id="linearGradient3797">
      <stop
         style="stop-color:#196ad0;stop-opacity:1;"
         offset="0"
         id="stop3799" />
      <stop
         style="stop-color:#14329e;stop-opacity:1;"
         offset="1"
         id="stop3801" />
    </linearGradient>
    <linearGradient
       inkscape:collect="always"
       xlink:href="#linearGradient3797"
       id="linearGradient4283"
       gradientUnits="userSpaceOnUse"
       x1="772.29376"
       y1="-91.110207"
       x2="775.25983"
       y2="618.01685"
       gradientTransform="translate(-24,0)" />
    <linearGradient
       id="linearGradient4285">
      <stop
         style="stop-color:#000000;stop-opacity:1;"
         offset="0"
         id="stop4287" />
      <stop
         style="stop-color:#292929;stop-opacity:1;"
         offset="1"
         id="stop4289" />
    </linearGradient>
    <linearGradient
       y2="618.01685"
       x2="775.25983"
       y1="-91.110207"
       x1="772.29376"
       gradientTransform="translate(-347.13181,305.27338)"
       gradientUnits="userSpaceOnUse"
       id="linearGradient4293"
       xlink:href="#linearGradient3797"
       inkscape:collect="always" />
    <linearGradient
       inkscape:collect="always"
       xlink:href="#linearGradient3797"
       id="linearGradient4350"
       x1="30.654041"
       y1="4.4894009"
       x2="31.242365"
       y2="61.398491"
       gradientUnits="userSpaceOnUse" />
    <linearGradient
       inkscape:collect="always"
       xlink:href="#linearGradient3797-9"
       id="linearGradient4350-5"
       x1="30.654041"
       y1="4.4894009"
       x2="31.242365"
       y2="61.398491"
       gradientUnits="userSpaceOnUse" />
    <linearGradient
       id="linearGradient3797-9">
      <stop
         style="stop-color:#000000;stop-opacity:1;"
         offset="0"
         id="stop3799-4" />
      <stop
         style="stop-color:#292929;stop-opacity:1;"
         offset="1"
         id="stop3801-9" />
    </linearGradient>
    <linearGradient
       gradientTransform="translate(0.50634156,0.41968865)"
       y2="61.398491"
       x2="31.242365"
       y1="4.4894009"
       x1="30.654041"
       gradientUnits="userSpaceOnUse"
       id="linearGradient4367"
       xlink:href="#linearGradient3797-9"
       inkscape:collect="always" />
    <linearGradient
       inkscape:collect="always"
       xlink:href="#linearGradient3797-9"
       id="linearGradient4392"
       gradientUnits="userSpaceOnUse"
       gradientTransform="translate(1.3621143e-4,2.1690247e-4)"
       x1="30.654041"
       y1="4.4894009"
       x2="31.242365"
       y2="61.398491" />
    <clipPath
       clipPathUnits="userSpaceOnUse"
       id="clipPath4394">
      <path
         style="color:#000000;fill:url(#linearGradient4398);fill-opacity:1;fill-rule:nonzero;stroke:#ffffff;stroke-width:1;stroke-linecap:butt;stroke-linejoin:miter;stroke-miterlimit:4;stroke-opacity:1;stroke-dasharray:none;stroke-dashoffset:0;marker:none;visibility:visible;display:inline;overflow:visible;filter:url(#filter5703);enable-background:accumulate"
         d="m 19.151876,61.222482 c -5.08331,-0.962306 -7.11407,-2.864921 -7.11407,-6.665146 0,-1.517538 0.3984,-2.393796 1.56122,-3.433755 1.28043,-1.145146 1.46684,-1.621108 1.03642,-2.64635 -0.51902,-1.2363 -0.53737,-1.237631 -1.66519,-0.120854 -2.23809,2.216183 -4.3303598,1.025259 -5.3635498,-3.05294 -0.98744,-3.897603 0.82528,-10.432387 3.8317298,-13.813268 0.6329,-0.711716 1.15072,-2.040415 1.15072,-2.952666 0,-0.912251 0.48015,-2.659631 1.067,-3.883067 0.58685,-1.223435 1.3293,-3.524412 1.6499,-5.11328 0.89066,-4.414118 1.94138,-6.650231 4.52433,-9.6285651 3.39064,-3.9096611 6.96437,-5.6809581 12.12591,-6.0101361 4.99072,-0.318284 8.32284,0.681382 12.10455,3.631482 2.92884,2.2847761 5.78716,6.5875372 6.63368,9.9859922 0.32496,1.304577 1.21499,4.118424 1.97785,6.252994 0.88045,2.463594 1.24649,4.351654 1.00223,5.169618 -0.24605,0.823991 -0.0823,1.643879 0.45427,2.274021 0.46148,0.541989 1.47386,2.434961 2.24972,4.206605 2.26514,5.172348 1.82441,11.88608 -0.89895,13.693574 -0.72776,0.483015 -1.30676,0.338572 -2.54584,-0.63511 l -1.60384,-1.260317 -0.67034,1.331282 c -0.59362,1.178926 -0.47579,1.538064 1.02962,3.138114 1.78938,1.901865 2.16512,3.980313 1.10146,6.092732 -1.77448,3.524094 -11.91343,4.893433 -17.29595,2.335939 l -2.73227,-1.298235 -2.50557,1.138235 c -3.04314,1.382436 -7.68542,1.910458 -11.10504,1.263101 z"
         id="path4396"
         inkscape:connector-curvature="0"
         sodipodi:nodetypes="sssssssssssssssssssscsssscss" />
    </clipPath>
    <linearGradient
       inkscape:collect="always"
       xlink:href="#linearGradient3797-9"
       id="linearGradient4398"
       gradientUnits="userSpaceOnUse"
       gradientTransform="translate(1.3621143e-4,2.1690247e-4)"
       x1="30.654041"
       y1="4.4894009"
       x2="31.242365"
       y2="61.398491" />
    <clipPath
       id="cp1">
      <polygon
         points="434,13 74,13 74,372 434,372 "
         id="polygon11" />
    </clipPath>
    <linearGradient
       inkscape:collect="always"
       xlink:href="#linearGradient3797"
       id="linearGradient3873"
       gradientUnits="userSpaceOnUse"
       x1="30.654041"
       y1="4.4894009"
       x2="31.242365"
       y2="61.398491"
       gradientTransform="matrix(4.4697788,0,0,4.4697788,105.13365,41.3082)" />
    <linearGradient
       inkscape:collect="always"
       xlink:href="#linearGradient3797"
       id="linearGradient3876"
       gradientUnits="userSpaceOnUse"
       x1="30.654041"
       y1="4.4894009"
       x2="31.242365"
       y2="61.398491" />
    <linearGradient
       inkscape:collect="always"
       xlink:href="#linearGradient3797-3"
       id="linearGradient3876-4"
       gradientUnits="userSpaceOnUse"
       x1="30.654041"
       y1="4.4894009"
       x2="31.242365"
       y2="61.398491" />
    <linearGradient
       id="linearGradient3797-3">
      <stop
         style="stop-color:#196ad0;stop-opacity:1;"
         offset="0"
         id="stop3799-3" />
      <stop
         style="stop-color:#14329e;stop-opacity:1;"
         offset="1"
         id="stop3801-3" />
    </linearGradient>
    <linearGradient
       gradientTransform="translate(9.9608878,21.510598)"
       y2="61.398491"
       x2="31.242365"
       y1="4.4894009"
       x1="30.654041"
       gradientUnits="userSpaceOnUse"
       id="linearGradient3893"
       xlink:href="#linearGradient3797-3"
       inkscape:collect="always" />
    <clipPath
       clipPathUnits="userSpaceOnUse"
       id="clipPath3916">
      <path
         sodipodi:nodetypes="sssssssssssssssssssscsssscss"
         inkscape:connector-curvature="0"
         id="path3918"
         d="m 190.73768,314.95818 c -22.72125,-4.30129 -31.79833,-12.80556 -31.79833,-29.79172 0,-6.78306 1.7808,-10.69974 6.97834,-15.34813 5.72324,-5.11855 6.55644,-7.24599 4.63257,-11.8286 -2.31991,-5.52599 -2.40194,-5.53193 -7.44303,-0.54019 -10.00377,9.90585 -19.35578,4.58268 -23.97392,-13.64597 -4.41363,-17.42142 3.68883,-46.63046 17.12701,-61.74225 2.8289,-3.18121 5.14345,-9.1202 5.14345,-13.19776 0,-4.07756 2.14616,-11.88796 4.76925,-17.35645 2.62309,-5.46848 5.9417,-15.75334 7.3747,-22.85523 3.98107,-19.73013 8.67756,-29.725063 20.22277,-43.037559 15.15542,-17.475321 31.12918,-25.392628 54.20012,-26.86398 22.30743,-1.422659 37.20123,3.045625 54.10465,16.23192 13.09128,10.212448 25.86734,29.444839 29.65111,44.635179 1.45249,5.83117 5.43074,18.40845 8.84056,27.9495 3.93541,11.01172 5.57151,19.45093 4.47974,23.10705 -1.09982,3.68306 -0.36773,7.34777 2.03048,10.16437 2.06272,2.42257 6.5878,10.88374 10.05573,18.80259 10.1247,23.11926 8.1547,53.12815 -4.01809,61.20725 -3.25292,2.15897 -5.84094,1.51334 -11.37934,-2.8388 l -7.16881,-5.63334 -2.99627,5.95054 c -2.65336,5.26954 -2.12667,6.8748 4.60218,14.02667 7.99809,8.50092 9.67759,17.79112 4.92325,27.23317 -7.93154,15.75192 -53.2504,21.87256 -77.30904,10.44113 l -12.21264,-5.80283 -11.19937,5.08766 c -13.60216,6.17918 -34.35214,8.53933 -49.63707,5.64578 z"
         style="color:#000000;fill:url(#linearGradient3920);fill-opacity:1;fill-rule:nonzero;stroke:#e2e2e2;stroke-width:4.46977854;stroke-linecap:butt;stroke-linejoin:miter;stroke-miterlimit:4;stroke-opacity:1;stroke-dasharray:none;stroke-dashoffset:0;marker:none;visibility:visible;display:inline;overflow:visible;enable-background:accumulate" />
    </clipPath>
    <linearGradient
       inkscape:collect="always"
       xlink:href="#linearGradient3797"
       id="linearGradient3920"
       gradientUnits="userSpaceOnUse"
       x1="30.654041"
       y1="4.4894009"
       x2="31.242365"
       y2="61.398491"
       gradientTransform="matrix(4.4697788,0,0,4.4697788,105.13365,41.3082)" />
  </defs>
  <sodipodi:namedview
     id="base"
     pagecolor="#ffffff"
     bordercolor="#666666"
     borderopacity="1.0"
     inkscape:pageopacity="0.0"
     inkscape:pageshadow="2"
     inkscape:zoom="5.5"
     inkscape:cx="10.453249"
     inkscape:cy="27.038853"
     inkscape:current-layer="layer1"
     showgrid="true"
     inkscape:document-units="px"
     inkscape:grid-bbox="true"
     inkscape:window-width="1366"
     inkscape:window-height="741"
     inkscape:window-x="0"
     inkscape:window-y="-4"
     inkscape:window-maximized="1" />
  <metadata
     id="metadata2990">
    <rdf:RDF>
      <cc:Work
         rdf:about="">
        <dc:format>image/svg+xml</dc:format>
        <dc:type
           rdf:resource="http://purl.org/dc/dcmitype/StillImage" />
        <dc:title />
      </cc:Work>
    </rdf:RDF>
  </metadata>
  <g
     id="layer1"
     inkscape:label="Layer 1"
     inkscape:groupmode="layer">
    <g
       transform="matrix(0.22372472,0,0,0.22372472,-23.520996,-9.2416655)"
       id="g4"
       clip-path="url(#clipPath3916)">
      <rect
         x="74"
         y="13"
         width="360"
         height="359"
         id="rect6"
         style="fill:#ffffff;stroke:none" />
      <g
         clip-path="url(#cp1)"
         id="g8">
        <clipPath
           id="clipPath3073">
          <polygon
             points="434,13 74,13 74,372 434,372 "
             id="polygon3075" />
        </clipPath>
        <ellipse
           cx="254"
           cy="192"
           rx="172.32001"
           ry="172.32001"
           id="ellipse13"
           d="m 426.32001,192 c 0,95.16971 -77.1503,172.32001 -172.32001,172.32001 C 158.83029,364.32001 81.679993,287.16971 81.679993,192 81.679993,96.830288 158.83029,19.679993 254,19.679993 c 95.16971,0 172.32001,77.150295 172.32001,172.320007 z"
           sodipodi:cx="254"
           sodipodi:cy="192"
           sodipodi:rx="172.32001"
           sodipodi:ry="172.32001"
           style="fill:#ffffff;stroke:none" />
        <ellipse
           cx="254"
           cy="192"
           rx="172.32001"
           ry="172.32001"
           id="ellipse15"
           d="m 426.32001,192 c 0,95.16971 -77.1503,172.32001 -172.32001,172.32001 C 158.83029,364.32001 81.679993,287.16971 81.679993,192 81.679993,96.830288 158.83029,19.679993 254,19.679993 c 95.16971,0 172.32001,77.150295 172.32001,172.320007 z"
           sodipodi:cx="254"
           sodipodi:cy="192"
           sodipodi:rx="172.32001"
           sodipodi:ry="172.32001"
           style="fill:none;stroke:#ffffff;stroke-width:1;stroke-opacity:1" />
        <ellipse
           cx="254"
           cy="203"
           rx="161.55"
           ry="161.55"
           id="ellipse17"
           d="M 415.55,203 C 415.55,292.2216 343.2216,364.55 254,364.55 164.7784,364.55 92.449997,292.2216 92.449997,203 92.449997,113.7784 164.7784,41.449997 254,41.449997 343.2216,41.449997 415.55,113.7784 415.55,203 z"
           sodipodi:cx="254"
           sodipodi:cy="203"
           sodipodi:rx="161.55"
           sodipodi:ry="161.55"
           style="fill:#f2f5fc;stroke:none" />
        <ellipse
           cx="254"
           cy="203"
           rx="161.55"
           ry="161.55"
           id="ellipse19"
           d="M 415.55,203 C 415.55,292.2216 343.2216,364.55 254,364.55 164.7784,364.55 92.449997,292.2216 92.449997,203 92.449997,113.7784 164.7784,41.449997 254,41.449997 343.2216,41.449997 415.55,113.7784 415.55,203 z"
           sodipodi:cx="254"
           sodipodi:cy="203"
           sodipodi:rx="161.55"
           sodipodi:ry="161.55"
           style="fill:none;stroke:#ffffff;stroke-width:1;stroke-opacity:1" />
        <ellipse
           cx="244"
           cy="199"
           rx="150.78"
           ry="150.78"
           id="ellipse21"
           d="M 394.78,199 C 394.78,282.27349 327.27349,349.78 244,349.78 160.72651,349.78 93.220001,282.27349 93.220001,199 93.220001,115.72651 160.72651,48.220001 244,48.220001 c 83.27349,0 150.78,67.506509 150.78,150.779999 z"
           sodipodi:cx="244"
           sodipodi:cy="199"
           sodipodi:rx="150.78"
           sodipodi:ry="150.78"
           style="fill:#e4eaf8;stroke:none" />
        <ellipse
           cx="244"
           cy="199"
           rx="150.78"
           ry="150.78"
           id="ellipse23"
           d="M 394.78,199 C 394.78,282.27349 327.27349,349.78 244,349.78 160.72651,349.78 93.220001,282.27349 93.220001,199 93.220001,115.72651 160.72651,48.220001 244,48.220001 c 83.27349,0 150.78,67.506509 150.78,150.779999 z"
           sodipodi:cx="244"
           sodipodi:cy="199"
           sodipodi:rx="150.78"
           sodipodi:ry="150.78"
           style="fill:none;stroke:#ffffff;stroke-width:1;stroke-opacity:1" />
        <ellipse
           cx="251"
           cy="191"
           rx="140.00999"
           ry="140.00999"
           id="ellipse25"
           d="m 391.00999,191 c 0,77.32538 -62.68461,140.00999 -140.00999,140.00999 -77.32538,0 -140.00999,-62.68461 -140.00999,-140.00999 0,-77.32538 62.68461,-140.009995 140.00999,-140.009995 77.32538,0 140.00999,62.684615 140.00999,140.009995 z"
           sodipodi:cx="251"
           sodipodi:cy="191"
           sodipodi:rx="140.00999"
           sodipodi:ry="140.00999"
           style="fill:#d6dff4;stroke:none" />
        <ellipse
           cx="251"
           cy="191"
           rx="140.00999"
           ry="140.00999"
           id="ellipse27"
           d="m 391.00999,191 c 0,77.32538 -62.68461,140.00999 -140.00999,140.00999 -77.32538,0 -140.00999,-62.68461 -140.00999,-140.00999 0,-77.32538 62.68461,-140.009995 140.00999,-140.009995 77.32538,0 140.00999,62.684615 140.00999,140.009995 z"
           sodipodi:cx="251"
           sodipodi:cy="191"
           sodipodi:rx="140.00999"
           sodipodi:ry="140.00999"
           style="fill:none;stroke:#ffffff;stroke-width:1;stroke-opacity:1" />
        <ellipse
           cx="255"
           cy="201"
           rx="129.24001"
           ry="129.24001"
           id="ellipse29"
           d="m 384.24001,201 c 0,71.37728 -57.86273,129.24001 -129.24001,129.24001 -71.37728,0 -129.24001,-57.86273 -129.24001,-129.24001 0,-71.37728 57.86273,-129.240005 129.24001,-129.240005 71.37728,0 129.24001,57.862725 129.24001,129.240005 z"
           sodipodi:cx="255"
           sodipodi:cy="201"
           sodipodi:rx="129.24001"
           sodipodi:ry="129.24001"
           style="fill:#c8d4f0;stroke:none" />
        <ellipse
           cx="255"
           cy="201"
           rx="129.24001"
           ry="129.24001"
           id="ellipse31"
           d="m 384.24001,201 c 0,71.37728 -57.86273,129.24001 -129.24001,129.24001 -71.37728,0 -129.24001,-57.86273 -129.24001,-129.24001 0,-71.37728 57.86273,-129.240005 129.24001,-129.240005 71.37728,0 129.24001,57.862725 129.24001,129.240005 z"
           sodipodi:cx="255"
           sodipodi:cy="201"
           sodipodi:rx="129.24001"
           sodipodi:ry="129.24001"
           style="fill:none;stroke:#ffffff;stroke-width:1;stroke-opacity:1" />
        <ellipse
           cx="245"
           cy="201"
           rx="118.47"
           ry="118.47"
           id="ellipse33"
           d="m 363.47,201 c 0,65.42917 -53.04083,118.47 -118.47,118.47 -65.42917,0 -118.47,-53.04083 -118.47,-118.47 0,-65.42917 53.04083,-118.470001 118.47,-118.470001 65.42917,0 118.47,53.040831 118.47,118.470001 z"
           sodipodi:cx="245"
           sodipodi:cy="201"
           sodipodi:rx="118.47"
           sodipodi:ry="118.47"
           style="fill:#bac9ec;stroke:none" />
        <ellipse
           cx="245"
           cy="201"
           rx="118.47"
           ry="118.47"
           id="ellipse35"
           d="m 363.47,201 c 0,65.42917 -53.04083,118.47 -118.47,118.47 -65.42917,0 -118.47,-53.04083 -118.47,-118.47 0,-65.42917 53.04083,-118.470001 118.47,-118.470001 65.42917,0 118.47,53.040831 118.47,118.470001 z"
           sodipodi:cx="245"
           sodipodi:cy="201"
           sodipodi:rx="118.47"
           sodipodi:ry="118.47"
           style="fill:none;stroke:#ffffff;stroke-width:1;stroke-opacity:1" />
        <ellipse
           cx="249"
           cy="191"
           rx="107.7"
           ry="107.7"
           id="ellipse37"
           d="m 356.7,191 c 0,59.48107 -48.21893,107.7 -107.7,107.7 -59.48107,0 -107.7,-48.21893 -107.7,-107.7 0,-59.48107 48.21893,-107.699997 107.7,-107.699997 59.48107,0 107.7,48.218927 107.7,107.699997 z"
           sodipodi:cx="249"
           sodipodi:cy="191"
           sodipodi:rx="107.7"
           sodipodi:ry="107.7"
           style="fill:#acbee8;stroke:none" />
        <ellipse
           cx="249"
           cy="191"
           rx="107.7"
           ry="107.7"
           id="ellipse39"
           d="m 356.7,191 c 0,59.48107 -48.21893,107.7 -107.7,107.7 -59.48107,0 -107.7,-48.21893 -107.7,-107.7 0,-59.48107 48.21893,-107.699997 107.7,-107.699997 59.48107,0 107.7,48.218927 107.7,107.699997 z"
           sodipodi:cx="249"
           sodipodi:cy="191"
           sodipodi:rx="107.7"
           sodipodi:ry="107.7"
           style="fill:none;stroke:#ffffff;stroke-width:1;stroke-opacity:1" />
        <ellipse
           cx="256"
           cy="199"
           rx="96.93"
           ry="96.93"
           id="ellipse41"
           d="m 352.93,199 c 0,53.53296 -43.39704,96.93 -96.93,96.93 -53.53296,0 -96.93,-43.39704 -96.93,-96.93 0,-53.53296 43.39704,-96.93 96.93,-96.93 53.53296,0 96.93,43.39704 96.93,96.93 z"
           sodipodi:cx="256"
           sodipodi:cy="199"
           sodipodi:rx="96.93"
           sodipodi:ry="96.93"
           style="fill:#9eb4e4;stroke:none" />
        <ellipse
           cx="256"
           cy="199"
           rx="96.93"
           ry="96.93"
           id="ellipse43"
           d="m 352.93,199 c 0,53.53296 -43.39704,96.93 -96.93,96.93 -53.53296,0 -96.93,-43.39704 -96.93,-96.93 0,-53.53296 43.39704,-96.93 96.93,-96.93 53.53296,0 96.93,43.39704 96.93,96.93 z"
           sodipodi:cx="256"
           sodipodi:cy="199"
           sodipodi:rx="96.93"
           sodipodi:ry="96.93"
           style="fill:none;stroke:#ffffff;stroke-width:1;stroke-opacity:1" />
        <ellipse
           cx="246"
           cy="203"
           rx="86.160004"
           ry="86.160004"
           id="ellipse45"
           d="m 332.16,203 c 0,47.58486 -38.57514,86.16 -86.16,86.16 -47.58486,0 -86.16,-38.57514 -86.16,-86.16 0,-47.58486 38.57514,-86.16 86.16,-86.16 47.58486,0 86.16,38.57514 86.16,86.16 z"
           sodipodi:cx="246"
           sodipodi:cy="203"
           sodipodi:rx="86.160004"
           sodipodi:ry="86.160004"
           style="fill:#91a9e0;stroke:none" />
        <ellipse
           cx="246"
           cy="203"
           rx="86.160004"
           ry="86.160004"
           id="ellipse47"
           d="m 332.16,203 c 0,47.58486 -38.57514,86.16 -86.16,86.16 -47.58486,0 -86.16,-38.57514 -86.16,-86.16 0,-47.58486 38.57514,-86.16 86.16,-86.16 47.58486,0 86.16,38.57514 86.16,86.16 z"
           sodipodi:cx="246"
           sodipodi:cy="203"
           sodipodi:rx="86.160004"
           sodipodi:ry="86.160004"
           style="fill:none;stroke:#ffffff;stroke-width:1;stroke-opacity:1" />
        <ellipse
           cx="246"
           cy="192"
           rx="75.389999"
           ry="75.389999"
           id="ellipse49"
           d="m 321.39,192 c 0,41.63675 -33.75325,75.39 -75.39,75.39 -41.63675,0 -75.39,-33.75325 -75.39,-75.39 0,-41.63675 33.75325,-75.39 75.39,-75.39 41.63675,0 75.39,33.75325 75.39,75.39 z"
           sodipodi:cx="246"
           sodipodi:cy="192"
           sodipodi:rx="75.389999"
           sodipodi:ry="75.389999"
           style="fill:#839edc;stroke:none" />
        <ellipse
           cx="246"
           cy="192"
           rx="75.389999"
           ry="75.389999"
           id="ellipse51"
           d="m 321.39,192 c 0,41.63675 -33.75325,75.39 -75.39,75.39 -41.63675,0 -75.39,-33.75325 -75.39,-75.39 0,-41.63675 33.75325,-75.39 75.39,-75.39 41.63675,0 75.39,33.75325 75.39,75.39 z"
           sodipodi:cx="246"
           sodipodi:cy="192"
           sodipodi:rx="75.389999"
           sodipodi:ry="75.389999"
           style="fill:none;stroke:#ffffff;stroke-width:1;stroke-opacity:1" />
        <ellipse
           cx="256"
           cy="196"
           rx="64.620003"
           ry="64.620003"
           id="ellipse53"
           d="m 320.62,196 c 0,35.68864 -28.93136,64.62 -64.62,64.62 -35.68864,0 -64.62,-28.93136 -64.62,-64.62 0,-35.68864 28.93136,-64.62 64.62,-64.62 35.68864,0 64.62,28.93136 64.62,64.62 z"
           sodipodi:cx="256"
           sodipodi:cy="196"
           sodipodi:rx="64.620003"
           sodipodi:ry="64.620003"
           style="fill:#7593d8;stroke:none" />
        <ellipse
           cx="256"
           cy="196"
           rx="64.620003"
           ry="64.620003"
           id="ellipse55"
           d="m 320.62,196 c 0,35.68864 -28.93136,64.62 -64.62,64.62 -35.68864,0 -64.62,-28.93136 -64.62,-64.62 0,-35.68864 28.93136,-64.62 64.62,-64.62 35.68864,0 64.62,28.93136 64.62,64.62 z"
           sodipodi:cx="256"
           sodipodi:cy="196"
           sodipodi:rx="64.620003"
           sodipodi:ry="64.620003"
           style="fill:none;stroke:#ffffff;stroke-width:1;stroke-opacity:1" />
        <ellipse
           cx="249"
           cy="204"
           rx="53.849998"
           ry="53.849998"
           id="ellipse57"
           d="m 302.85,204 c 0,29.74053 -24.10947,53.85 -53.85,53.85 -29.74053,0 -53.85,-24.10947 -53.85,-53.85 0,-29.74053 24.10947,-53.85 53.85,-53.85 29.74053,0 53.85,24.10947 53.85,53.85 z"
           sodipodi:cx="249"
           sodipodi:cy="204"
           sodipodi:rx="53.849998"
           sodipodi:ry="53.849998"
           style="fill:#6788d4;stroke:none" />
        <ellipse
           cx="249"
           cy="204"
           rx="53.849998"
           ry="53.849998"
           id="ellipse59"
           d="m 302.85,204 c 0,29.74053 -24.10947,53.85 -53.85,53.85 -29.74053,0 -53.85,-24.10947 -53.85,-53.85 0,-29.74053 24.10947,-53.85 53.85,-53.85 29.74053,0 53.85,24.10947 53.85,53.85 z"
           sodipodi:cx="249"
           sodipodi:cy="204"
           sodipodi:rx="53.849998"
           sodipodi:ry="53.849998"
           style="fill:none;stroke:#ffffff;stroke-width:1;stroke-opacity:1" />
        <ellipse
           cx="245"
           cy="194"
           rx="43.080002"
           ry="43.080002"
           id="ellipse61"
           d="m 288.08,194 c 0,23.79243 -19.28757,43.08 -43.08,43.08 -23.79243,0 -43.08,-19.28757 -43.08,-43.08 0,-23.79243 19.28757,-43.08 43.08,-43.08 23.79243,0 43.08,19.28757 43.08,43.08 z"
           sodipodi:cx="245"
           sodipodi:cy="194"
           sodipodi:rx="43.080002"
           sodipodi:ry="43.080002"
           style="fill:#597dd0;stroke:none" />
        <ellipse
           cx="245"
           cy="194"
           rx="43.080002"
           ry="43.080002"
           id="ellipse63"
           d="m 288.08,194 c 0,23.79243 -19.28757,43.08 -43.08,43.08 -23.79243,0 -43.08,-19.28757 -43.08,-43.08 0,-23.79243 19.28757,-43.08 43.08,-43.08 23.79243,0 43.08,19.28757 43.08,43.08 z"
           sodipodi:cx="245"
           sodipodi:cy="194"
           sodipodi:rx="43.080002"
           sodipodi:ry="43.080002"
           style="fill:none;stroke:#ffffff;stroke-width:1;stroke-opacity:1" />
        <ellipse
           cx="255"
           cy="194"
           rx="32.310001"
           ry="32.310001"
           id="ellipse65"
           d="m 287.31,194 c 0,17.84432 -14.46568,32.31 -32.31,32.31 -17.84432,0 -32.31,-14.46568 -32.31,-32.31 0,-17.84432 14.46568,-32.31 32.31,-32.31 17.84432,0 32.31,14.46568 32.31,32.31 z"
           sodipodi:cx="255"
           sodipodi:cy="194"
           sodipodi:rx="32.310001"
           sodipodi:ry="32.310001"
           style="fill:#4b73cc;stroke:none" />
        <ellipse
           cx="255"
           cy="194"
           rx="32.310001"
           ry="32.310001"
           id="ellipse67"
           d="m 287.31,194 c 0,17.84432 -14.46568,32.31 -32.31,32.31 -17.84432,0 -32.31,-14.46568 -32.31,-32.31 0,-17.84432 14.46568,-32.31 32.31,-32.31 17.84432,0 32.31,14.46568 32.31,32.31 z"
           sodipodi:cx="255"
           sodipodi:cy="194"
           sodipodi:rx="32.310001"
           sodipodi:ry="32.310001"
           style="fill:none;stroke:#ffffff;stroke-width:1;stroke-opacity:1" />
        <ellipse
           cx="251"
           cy="204"
           rx="21.540001"
           ry="21.540001"
           id="ellipse69"
           d="m 272.54,204 c 0,11.89621 -9.64379,21.54 -21.54,21.54 -11.89621,0 -21.54,-9.64379 -21.54,-21.54 0,-11.89621 9.64379,-21.54 21.54,-21.54 11.89621,0 21.54,9.64379 21.54,21.54 z"
           sodipodi:cx="251"
           sodipodi:cy="204"
           sodipodi:rx="21.540001"
           sodipodi:ry="21.540001"
           style="fill:#3d68c8;stroke:none" />
        <ellipse
           cx="251"
           cy="204"
           rx="21.540001"
           ry="21.540001"
           id="ellipse71"
           d="m 272.54,204 c 0,11.89621 -9.64379,21.54 -21.54,21.54 -11.89621,0 -21.54,-9.64379 -21.54,-21.54 0,-11.89621 9.64379,-21.54 21.54,-21.54 11.89621,0 21.54,9.64379 21.54,21.54 z"
           sodipodi:cx="251"
           sodipodi:cy="204"
           sodipodi:rx="21.540001"
           sodipodi:ry="21.540001"
           style="fill:none;stroke:#ffffff;stroke-width:1;stroke-opacity:1" />
        <ellipse
           cx="244"
           cy="196"
           rx="10.77"
           ry="10.77"
           id="ellipse73"
           d="m 254.77,196 c 0,5.94811 -4.82189,10.77 -10.77,10.77 -5.94811,0 -10.77,-4.82189 -10.77,-10.77 0,-5.94811 4.82189,-10.77 10.77,-10.77 5.94811,0 10.77,4.82189 10.77,10.77 z"
           sodipodi:cx="244"
           sodipodi:cy="196"
           sodipodi:rx="10.77"
           sodipodi:ry="10.77"
           style="fill:#2f5dc4;stroke:none" />
        <ellipse
           cx="244"
           cy="196"
           rx="10.77"
           ry="10.77"
           id="ellipse75"
           d="m 254.77,196 c 0,5.94811 -4.82189,10.77 -10.77,10.77 -5.94811,0 -10.77,-4.82189 -10.77,-10.77 0,-5.94811 4.82189,-10.77 10.77,-10.77 5.94811,0 10.77,4.82189 10.77,10.77 z"
           sodipodi:cx="244"
           sodipodi:cy="196"
           sodipodi:rx="10.77"
           sodipodi:ry="10.77"
           style="fill:none;stroke:#ffffff;stroke-width:1;stroke-opacity:1" />
      </g>
    </g>
    <path
       style="fill:url(#linearGradient3829);stroke:none;stroke-width:1px;stroke-linecap:butt;stroke-linejoin:miter;stroke-opacity:1;fill-opacity:1"
       d="m -4.5454545,42.363636 c 0,0 27.6363635,-24.181818 69.0909095,-23.090909 C 106,20.363636 45.636364,-6.1818182 45.636364,-6.1818182 c 0,0 -55.0909095,6.90909093 -55.0909095,7.6363637 0,0.7272727 4.909091,40.9090905 4.909091,40.9090905 z"
       id="path3053"
       inkscape:connector-curvature="0"
       clip-path="url(#clipPath4394)" />
  </g>
  <g
     inkscape:groupmode="layer"
     id="layer2"
     inkscape:label="层"
     sodipodi:insensitive="true">
    <path
       sodipodi:nodetypes="sssssssssssssssssssscsssscss"
       inkscape:connector-curvature="0"
       id="path3871-0"
       d="m 19.112625,61.278318 c -5.083304,-0.962305 -7.114071,-2.86492 -7.114071,-6.665144 0,-1.517538 0.398409,-2.393796 1.561227,-3.433756 1.28043,-1.145146 1.466837,-1.621107 1.03642,-2.64635 -0.519021,-1.236301 -0.537373,-1.23763 -1.66519,-0.120854 -2.23809,2.216183 -4.330366,1.025259 -5.363558,-3.052941 -0.987438,-3.897602 0.825282,-10.432387 3.831735,-13.813268 0.632895,-0.711715 1.150717,-2.040414 1.150717,-2.952665 0,-0.912251 0.480149,-2.65963 1.066999,-3.883067 0.58685,-1.223434 1.329306,-3.524411 1.649903,-5.11328 0.890664,-4.414117 1.941384,-6.650231 4.524333,-9.6285664 3.390642,-3.909661 6.964367,-5.680958 12.125906,-6.010136 4.990724,-0.318284 8.322835,0.681382 12.104548,3.631482 2.928843,2.284777 5.787163,6.5875384 6.633686,9.9859934 0.324958,1.304577 1.214991,4.118425 1.977852,6.252994 0.880449,2.463594 1.246485,4.351654 1.002229,5.169618 -0.246057,0.823992 -0.08227,1.643878 0.454268,2.274021 0.461482,0.541989 1.473854,2.434962 2.249716,4.206604 2.265145,5.17235 1.824408,11.886081 -0.898946,13.693575 -0.727759,0.483015 -1.306763,0.338572 -2.54584,-0.63511 l -1.60384,-1.260317 -0.67034,1.331283 c -0.593622,1.178926 -0.475788,1.538062 1.029622,3.138113 1.78937,1.901866 2.165116,3.980313 1.101452,6.092733 -1.774481,3.524094 -11.91343,4.893432 -17.295943,2.335939 l -2.732269,-1.298237 -2.505576,1.138236 c -3.04314,1.382435 -7.685423,1.910459 -11.10504,1.2631 z"
       style="color:#000000;fill:none;stroke:#e2e2e2;stroke-width:0.99999994;stroke-linecap:butt;stroke-linejoin:miter;stroke-miterlimit:4;stroke-opacity:1;stroke-dasharray:none;stroke-dashoffset:0;marker:none;visibility:visible;display:inline;overflow:visible;enable-background:accumulate" />
  </g>
</svg>
