<?xml version="1.0" encoding="UTF-8" standalone="no"?>
<!-- Created with Inkscape (http://www.inkscape.org/) -->

<svg
   xmlns:dc="http://purl.org/dc/elements/1.1/"
   xmlns:cc="http://creativecommons.org/ns#"
   xmlns:rdf="http://www.w3.org/1999/02/22-rdf-syntax-ns#"
   xmlns:svg="http://www.w3.org/2000/svg"
   xmlns="http://www.w3.org/2000/svg"
   xmlns:xlink="http://www.w3.org/1999/xlink"
   xmlns:sodipodi="http://sodipodi.sourceforge.net/DTD/sodipodi-0.dtd"
   xmlns:inkscape="http://www.inkscape.org/namespaces/inkscape"
   width="64px"
   height="64px"
   id="svg2985"
   version="1.1"
   inkscape:version="0.48.3.1 r9886"
   sodipodi:docname="webqq.svg">
  <defs
     id="defs2987">
    <linearGradient
       id="linearGradient3823">
      <stop
         style="stop-color:#fff9f9;stop-opacity:0.50196081;"
         offset="0"
         id="stop3825" />
      <stop
         style="stop-color:#ffffff;stop-opacity:0;"
         offset="1"
         id="stop3827" />
    </linearGradient>
    <linearGradient
       inkscape:collect="always"
       xlink:href="#linearGradient3823"
       id="linearGradient3829"
       x1="22.363636"
       y1="27.363636"
       x2="18.357994"
       y2="4.0909081"
       gradientUnits="userSpaceOnUse" />
    <linearGradient
       id="linearGradient3797">
      <stop
         style="stop-color:#000000;stop-opacity:1;"
         offset="0"
         id="stop3799" />
      <stop
         style="stop-color:#2d2d2d;stop-opacity:1;"
         offset="1"
         id="stop3801" />
    </linearGradient>
    <linearGradient
       inkscape:collect="always"
       xlink:href="#linearGradient3797"
       id="linearGradient4283"
       gradientUnits="userSpaceOnUse"
       x1="772.29376"
       y1="-91.110207"
       x2="775.25983"
       y2="618.01685"
       gradientTransform="translate(-24,0)" />
    <linearGradient
       id="linearGradient4285">
      <stop
         style="stop-color:#000000;stop-opacity:1;"
         offset="0"
         id="stop4287" />
      <stop
         style="stop-color:#292929;stop-opacity:1;"
         offset="1"
         id="stop4289" />
    </linearGradient>
    <linearGradient
       y2="618.01685"
       x2="775.25983"
       y1="-91.110207"
       x1="772.29376"
       gradientTransform="translate(-347.13181,305.27338)"
       gradientUnits="userSpaceOnUse"
       id="linearGradient4293"
       xlink:href="#linearGradient3797"
       inkscape:collect="always" />
    <linearGradient
       inkscape:collect="always"
       xlink:href="#linearGradient3797"
       id="linearGradient4350"
       x1="30.654041"
       y1="4.4894009"
       x2="31.242365"
       y2="61.398491"
       gradientUnits="userSpaceOnUse" />
    <linearGradient
       inkscape:collect="always"
       xlink:href="#linearGradient3797-9"
       id="linearGradient4350-5"
       x1="30.654041"
       y1="4.4894009"
       x2="31.242365"
       y2="61.398491"
       gradientUnits="userSpaceOnUse" />
    <linearGradient
       id="linearGradient3797-9">
      <stop
         style="stop-color:#000000;stop-opacity:1;"
         offset="0"
         id="stop3799-4" />
      <stop
         style="stop-color:#292929;stop-opacity:1;"
         offset="1"
         id="stop3801-9" />
    </linearGradient>
    <linearGradient
       gradientTransform="translate(0.50634156,0.41968865)"
       y2="61.398491"
       x2="31.242365"
       y1="4.4894009"
       x1="30.654041"
       gradientUnits="userSpaceOnUse"
       id="linearGradient4367"
       xlink:href="#linearGradient3797-9"
       inkscape:collect="always" />
    <linearGradient
       inkscape:collect="always"
       xlink:href="#linearGradient3797-9"
       id="linearGradient4392"
       gradientUnits="userSpaceOnUse"
       gradientTransform="translate(1.3621143e-4,2.1690247e-4)"
       x1="30.654041"
       y1="4.4894009"
       x2="31.242365"
       y2="61.398491" />
    <clipPath
       clipPathUnits="userSpaceOnUse"
       id="clipPath4394">
      <path
         style="color:#000000;fill:url(#linearGradient4398);fill-opacity:1;fill-rule:nonzero;stroke:#ffffff;stroke-width:1;stroke-linecap:butt;stroke-linejoin:miter;stroke-miterlimit:4;stroke-opacity:1;stroke-dasharray:none;stroke-dashoffset:0;marker:none;visibility:visible;display:inline;overflow:visible;filter:url(#filter5703);enable-background:accumulate"
         d="m 19.151876,61.222482 c -5.08331,-0.962306 -7.11407,-2.864921 -7.11407,-6.665146 0,-1.517538 0.3984,-2.393796 1.56122,-3.433755 1.28043,-1.145146 1.46684,-1.621108 1.03642,-2.64635 -0.51902,-1.2363 -0.53737,-1.237631 -1.66519,-0.120854 -2.23809,2.216183 -4.3303598,1.025259 -5.3635498,-3.05294 -0.98744,-3.897603 0.82528,-10.432387 3.8317298,-13.813268 0.6329,-0.711716 1.15072,-2.040415 1.15072,-2.952666 0,-0.912251 0.48015,-2.659631 1.067,-3.883067 0.58685,-1.223435 1.3293,-3.524412 1.6499,-5.11328 0.89066,-4.414118 1.94138,-6.650231 4.52433,-9.6285651 3.39064,-3.9096611 6.96437,-5.6809581 12.12591,-6.0101361 4.99072,-0.318284 8.32284,0.681382 12.10455,3.631482 2.92884,2.2847761 5.78716,6.5875372 6.63368,9.9859922 0.32496,1.304577 1.21499,4.118424 1.97785,6.252994 0.88045,2.463594 1.24649,4.351654 1.00223,5.169618 -0.24605,0.823991 -0.0823,1.643879 0.45427,2.274021 0.46148,0.541989 1.47386,2.434961 2.24972,4.206605 2.26514,5.172348 1.82441,11.88608 -0.89895,13.693574 -0.72776,0.483015 -1.30676,0.338572 -2.54584,-0.63511 l -1.60384,-1.260317 -0.67034,1.331282 c -0.59362,1.178926 -0.47579,1.538064 1.02962,3.138114 1.78938,1.901865 2.16512,3.980313 1.10146,6.092732 -1.77448,3.524094 -11.91343,4.893433 -17.29595,2.335939 l -2.73227,-1.298235 -2.50557,1.138235 c -3.04314,1.382436 -7.68542,1.910458 -11.10504,1.263101 z"
         id="path4396"
         inkscape:connector-curvature="0"
         sodipodi:nodetypes="sssssssssssssssssssscsssscss" />
    </clipPath>
    <linearGradient
       inkscape:collect="always"
       xlink:href="#linearGradient3797-9"
       id="linearGradient4398"
       gradientUnits="userSpaceOnUse"
       gradientTransform="translate(1.3621143e-4,2.1690247e-4)"
       x1="30.654041"
       y1="4.4894009"
       x2="31.242365"
       y2="61.398491" />
  </defs>
  <sodipodi:namedview
     id="base"
     pagecolor="#ffffff"
     bordercolor="#666666"
     borderopacity="1.0"
     inkscape:pageopacity="0.0"
     inkscape:pageshadow="2"
     inkscape:zoom="0.48613591"
     inkscape:cx="185.72839"
     inkscape:cy="349.13381"
     inkscape:current-layer="layer1"
     showgrid="true"
     inkscape:document-units="px"
     inkscape:grid-bbox="true"
     inkscape:window-width="1366"
     inkscape:window-height="712"
     inkscape:window-x="0"
     inkscape:window-y="27"
     inkscape:window-maximized="1" />
  <metadata
     id="metadata2990">
    <rdf:RDF>
      <cc:Work
         rdf:about="">
        <dc:format>image/svg+xml</dc:format>
        <dc:type
           rdf:resource="http://purl.org/dc/dcmitype/StillImage" />
        <dc:title></dc:title>
      </cc:Work>
    </rdf:RDF>
  </metadata>
  <g
     id="layer1"
     inkscape:label="Layer 1"
     inkscape:groupmode="layer">
    <path
       style="fill:url(#linearGradient4350);fill-opacity:1;color:#000000;fill-rule:nonzero;stroke:#e2e2e2;stroke-width:1;stroke-linecap:butt;stroke-linejoin:miter;stroke-miterlimit:4;stroke-opacity:1;stroke-dasharray:none;stroke-dashoffset:0;marker:none;visibility:visible;display:inline;overflow:visible;enable-background:accumulate"
       d="m 19.151739,61.222266 c -5.083306,-0.962306 -7.114073,-2.864921 -7.114073,-6.665146 0,-1.517538 0.398408,-2.393796 1.561227,-3.433755 1.280431,-1.145146 1.466838,-1.621108 1.036421,-2.64635 -0.519023,-1.2363 -0.537375,-1.237631 -1.665191,-0.120854 -2.23809,2.216183 -4.3303663,1.025259 -5.3635572,-3.05294 -0.987438,-3.897603 0.8252804,-10.432387 3.8317352,-13.813268 0.632894,-0.711716 1.150717,-2.040415 1.150717,-2.952666 0,-0.912251 0.480149,-2.659631 1.066999,-3.883067 0.586849,-1.223435 1.329305,-3.524412 1.649901,-5.11328 0.890665,-4.414118 1.941385,-6.650231 4.524335,-9.6285656 3.390641,-3.9096613 6.964367,-5.6809586 12.125906,-6.0101362 4.990723,-0.3182842 8.322836,0.6813815 12.104549,3.6314816 2.928842,2.2847772 5.787162,6.5875382 6.633685,9.9859932 0.324958,1.304577 1.214991,4.118424 1.977851,6.252994 0.880449,2.463594 1.246485,4.351654 1.00223,5.169618 -0.246057,0.823991 -0.08227,1.643879 0.454268,2.274021 0.461481,0.541989 1.473854,2.434961 2.249716,4.206605 2.265146,5.172348 1.824407,11.88608 -0.898947,13.693574 -0.727758,0.483015 -1.306762,0.338572 -2.545839,-0.63511 l -1.603841,-1.260317 -0.670338,1.331282 c -0.593622,1.178926 -0.475789,1.538064 1.029621,3.138114 1.789371,1.901865 2.165116,3.980313 1.101453,6.092732 -1.774482,3.524094 -11.913432,4.893433 -17.295945,2.335939 l -2.732269,-1.298235 -2.505576,1.138235 c -3.043139,1.382436 -7.685422,1.910458 -11.105038,1.263101 z"
       id="path3028"
       inkscape:connector-curvature="0"
       sodipodi:nodetypes="sssssssssssssssssssscsssscss" />
    <path
       style="fill:url(#linearGradient3829);stroke:none;stroke-width:1px;stroke-linecap:butt;stroke-linejoin:miter;stroke-opacity:1;fill-opacity:1"
       d="m -4.5454545,42.363636 c 0,0 27.6363635,-24.181818 69.0909095,-23.090909 C 106,20.363636 45.636364,-6.1818182 45.636364,-6.1818182 c 0,0 -55.0909095,6.90909093 -55.0909095,7.6363637 0,0.7272727 4.909091,40.9090905 4.909091,40.9090905 z"
       id="path3053"
       inkscape:connector-curvature="0"
       clip-path="url(#clipPath4394)" />
  </g>
</svg>
